<svg width="538" height="401" viewBox="0 0 538 401" fill="none" xmlns="http://www.w3.org/2000/svg">
<g clip-path="url(#clip0_110_28)">
<path d="M183.124 281.691C206.363 281.691 225.202 262.84 225.202 239.586C225.202 216.331 206.363 197.48 183.124 197.48C159.885 197.48 141.046 216.331 141.046 239.586C141.046 262.84 159.885 281.691 183.124 281.691Z" fill="#15B54A"/>
<path opacity="0.2" d="M152.055 211.462C148.13 220.65 147.598 230.934 150.553 240.478C153.508 250.021 159.758 258.203 168.187 263.56C176.615 268.917 186.672 271.1 196.562 269.72C206.451 268.34 215.527 263.486 222.169 256.026C219.771 261.639 216.183 266.663 211.652 270.75C207.121 274.838 201.757 277.891 195.93 279.697C190.103 281.504 183.953 282.022 177.907 281.214C171.86 280.406 166.062 278.293 160.912 275.02C155.763 271.747 151.386 267.393 148.086 262.26C144.785 257.127 142.639 251.337 141.796 245.291C140.954 239.245 141.435 233.088 143.206 227.247C144.978 221.406 147.997 216.02 152.055 211.462Z" fill="black"/>
<path d="M183.24 239.585H183.355L185.436 358.961H181.043L183.24 239.585Z" fill="#6A5C2A"/>
<path d="M256.435 222.26C284.426 222.26 307.117 199.554 307.117 171.545C307.117 143.535 284.426 120.829 256.435 120.829C228.444 120.829 205.753 143.535 205.753 171.545C205.753 199.554 228.444 222.26 256.435 222.26Z" fill="#15B54A"/>
<path opacity="0.2" d="M293.857 137.671C298.584 148.737 299.226 161.124 295.666 172.619C292.107 184.115 284.579 193.969 274.427 200.421C264.275 206.874 252.161 209.504 240.25 207.841C228.338 206.179 217.406 200.332 209.406 191.347C212.294 198.107 216.616 204.159 222.073 209.082C227.53 214.006 233.992 217.683 241.01 219.859C248.029 222.035 255.436 222.659 262.719 221.686C270.002 220.713 276.986 218.167 283.189 214.225C289.391 210.283 294.663 205.039 298.638 198.856C302.614 192.673 305.199 185.699 306.214 178.417C307.228 171.135 306.649 163.719 304.515 156.683C302.382 149.648 298.745 143.16 293.857 137.671Z" fill="black"/>
<path d="M256.296 171.545H256.157L253.65 315.332H258.941L256.296 171.545Z" fill="#6A5C2A"/>
<path d="M162.35 124.039L169.231 118.532C163.885 117.942 161.689 120.859 160.79 123.168C156.613 121.433 152.067 123.707 152.067 123.707L165.835 128.709C165.141 126.853 163.932 125.233 162.35 124.039Z" fill="#CBCBCB"/>
<path d="M145.003 76.5151L151.885 71.0077C146.539 70.4175 144.342 73.335 143.443 75.6441C139.267 73.9088 134.72 76.183 134.72 76.183L148.489 81.1848C147.794 79.3283 146.585 77.7085 145.003 76.5151Z" fill="#CBCBCB"/>
<path d="M242.486 107.241L249.368 101.734C244.022 101.144 241.825 104.061 240.927 106.37C236.75 104.635 232.204 106.909 232.204 106.909L245.972 111.911C245.277 110.055 244.068 108.435 242.486 107.241Z" fill="#CBCBCB"/>
<path d="M235.687 315.112C235.687 315.112 235.95 309.591 241.348 310.233L235.687 315.112Z" fill="#CBCBCB"/>
<path d="M272.354 315.112C272.354 315.112 272.617 309.591 278.015 310.233L272.354 315.112Z" fill="#CBCBCB"/>
<path d="M261.677 315.112C261.677 315.112 261.941 309.591 267.338 310.233L261.677 315.112Z" fill="#CBCBCB"/>
<path d="M225.865 315.112C225.865 315.112 225.601 309.591 220.204 310.233L225.865 315.112Z" fill="#CBCBCB"/>
<path d="M248.742 315.493C248.742 315.493 248.479 309.972 243.081 310.614L248.742 315.493Z" fill="#CBCBCB"/>
<path d="M164.77 358.478C164.77 358.478 165.033 352.958 170.431 353.599L164.77 358.478Z" fill="#CBCBCB"/>
<path d="M201.437 358.478C201.437 358.478 201.7 352.958 207.098 353.599L201.437 358.478Z" fill="#CBCBCB"/>
<path d="M190.76 358.478C190.76 358.478 191.024 352.958 196.422 353.599L190.76 358.478Z" fill="#CBCBCB"/>
<path d="M154.948 358.478C154.948 358.478 154.685 352.958 149.287 353.599L154.948 358.478Z" fill="#CBCBCB"/>
<path d="M177.825 358.86C177.825 358.86 177.562 353.339 172.164 353.981L177.825 358.86Z" fill="#CBCBCB"/>
<path d="M442.992 99.6812H372.432V105.973H442.992V99.6812Z" fill="#3F3D56"/>
<path d="M442.992 122.859H372.432V129.15H442.992V122.859Z" fill="#3F3D56"/>
<path d="M442.992 143.622H372.432V149.913H442.992V143.622Z" fill="#3F3D56"/>
<path d="M345.893 102.827C345.893 101.203 346.374 99.6164 347.275 98.2665C348.176 96.9166 349.458 95.8644 350.957 95.2431C352.456 94.6218 354.105 94.4593 355.696 94.776C357.287 95.0928 358.749 95.8745 359.896 97.0225C361.044 98.1706 361.825 99.6332 362.141 101.226C362.458 102.818 362.296 104.468 361.675 105.968C361.054 107.468 360.002 108.75 358.653 109.652C357.304 110.554 355.718 111.036 354.096 111.036C351.921 111.033 349.836 110.168 348.298 108.629C346.76 107.09 345.895 105.003 345.893 102.827Z" fill="#097A2F"/>
<path d="M345.893 126.004C345.893 124.381 346.374 122.794 347.275 121.444C348.176 120.094 349.458 119.042 350.957 118.421C352.456 117.799 354.105 117.637 355.696 117.953C357.287 118.27 358.749 119.052 359.896 120.2C361.044 121.348 361.825 122.811 362.141 124.403C362.458 125.995 362.296 127.646 361.675 129.146C361.054 130.646 360.002 131.928 358.653 132.83C357.304 133.732 355.718 134.213 354.096 134.213C351.921 134.211 349.836 133.345 348.298 131.806C346.76 130.267 345.895 128.181 345.893 126.004Z" fill="#097A2F"/>
<path d="M345.893 146.767C345.893 145.144 346.374 143.557 347.275 142.207C348.176 140.857 349.458 139.805 350.957 139.184C352.456 138.562 354.105 138.4 355.696 138.717C357.287 139.033 358.749 139.815 359.896 140.963C361.044 142.111 361.825 143.574 362.141 145.166C362.458 146.758 362.296 148.409 361.675 149.909C361.054 151.409 360.002 152.691 358.653 153.593C357.304 154.495 355.718 154.976 354.096 154.976C351.921 154.974 349.836 154.108 348.298 152.569C346.76 151.03 345.895 148.944 345.893 146.767Z" fill="#097A2F"/>
<path d="M276.746 158.086L275.709 157.281L302.269 123.059H337.006V124.373H302.912L276.746 158.086Z" fill="#3F3D56"/>
<path d="M70.5594 174.587H0V180.879H70.5594V174.587Z" fill="#3F3D56"/>
<path d="M70.5594 197.765H0V204.056H70.5594V197.765Z" fill="#3F3D56"/>
<path d="M70.5594 218.528H0V224.819H70.5594V218.528Z" fill="#3F3D56"/>
<path d="M88.8961 185.942C87.2737 185.942 85.6877 185.46 84.3387 184.558C82.9896 183.656 81.9382 182.374 81.3173 180.874C80.6964 179.374 80.534 177.724 80.8505 176.132C81.167 174.539 81.9483 173.077 83.0956 171.929C84.2428 170.781 85.7045 169.999 87.2957 169.682C88.887 169.365 90.5364 169.528 92.0354 170.149C93.5343 170.771 94.8155 171.823 95.7169 173.173C96.6183 174.523 97.0994 176.11 97.0994 177.733C97.0994 178.811 96.8872 179.878 96.4749 180.874C96.0627 181.87 95.4584 182.775 94.6967 183.538C93.935 184.3 93.0306 184.904 92.0354 185.317C91.0401 185.729 89.9734 185.942 88.8961 185.942Z" fill="#097A2F"/>
<path d="M88.8961 209.119C87.2737 209.119 85.6876 208.638 84.3386 207.736C82.9896 206.834 81.9382 205.552 81.3173 204.052C80.6964 202.552 80.534 200.901 80.8505 199.309C81.167 197.717 81.9483 196.254 83.0956 195.106C84.2428 193.958 85.7045 193.176 87.2958 192.86C88.887 192.543 90.5364 192.705 92.0354 193.327C93.5343 193.948 94.8155 195 95.7169 196.35C96.6183 197.7 97.0994 199.287 97.0994 200.911C97.0994 201.989 96.8872 203.056 96.4749 204.052C96.0627 205.048 95.4584 205.953 94.6967 206.715C93.9349 207.477 93.0306 208.082 92.0353 208.494C91.0401 208.907 89.9734 209.119 88.8961 209.119H88.8961Z" fill="#097A2F"/>
<path d="M88.8961 229.882C87.2737 229.882 85.6876 229.401 84.3386 228.499C82.9896 227.597 81.9382 226.315 81.3173 224.815C80.6964 223.315 80.534 221.664 80.8505 220.072C81.167 218.48 81.9483 217.017 83.0956 215.869C84.2428 214.721 85.7045 213.939 87.2958 213.623C88.887 213.306 90.5364 213.468 92.0354 214.09C93.5343 214.711 94.8155 215.763 95.7169 217.113C96.6183 218.463 97.0994 220.05 97.0994 221.674C97.0994 222.752 96.8872 223.819 96.4749 224.815C96.0627 225.811 95.4584 226.716 94.6967 227.478C93.9349 228.24 93.0306 228.845 92.0353 229.257C91.0401 229.67 89.9734 229.882 88.8961 229.882H88.8961Z" fill="#097A2F"/>
<path d="M166.247 232.992L140.08 199.279H105.986V197.965H140.722L140.919 198.219L167.283 232.187L166.247 232.992Z" fill="#3F3D56"/>
<path d="M497.359 396.424H492.927L490.819 379.317H497.36L497.359 396.424Z" fill="#FFB7B7"/>
<path d="M498.49 400.723L484.198 400.723V400.542C484.199 399.065 484.785 397.65 485.828 396.606C486.871 395.562 488.286 394.976 489.761 394.975H489.761L498.49 394.976L498.49 400.723Z" fill="#2F2E41"/>
<path d="M478.317 396.424H473.885L471.777 379.317H478.318L478.317 396.424Z" fill="#FFB7B7"/>
<path d="M479.447 400.723L465.156 400.723V400.542C465.156 399.065 465.742 397.65 466.785 396.606C467.828 395.562 469.243 394.976 470.719 394.975H470.719L479.448 394.976L479.447 400.723Z" fill="#2F2E41"/>
<path d="M468.227 284.191L462.222 293.747L472.302 390.178L482.837 390.816L485.053 307.53L488.747 352.048L487.288 390.816L498.134 391.342L504.579 335.097L509.431 290.612L499.91 281.742L468.227 284.191Z" fill="#2F2E41"/>
<path d="M496.298 211.106L479.883 211.763L464.671 286.856C464.671 286.856 489.396 299.133 499.414 287.973L505.435 283.559L496.298 211.106Z" fill="#097A2F"/>
<path d="M496.298 211.106L510.744 219.531L505.407 254.802L510.087 290.764L494.888 288.286C494.888 288.286 491.776 254.802 493.795 244.289C495.815 233.775 496.298 211.106 496.298 211.106Z" fill="#3F3D56"/>
<path d="M479.882 211.763L462.596 220.641L463.913 259.703L454.992 289.297C454.992 289.297 472.781 294.994 475.839 286.068C478.897 277.142 479.882 211.763 479.882 211.763Z" fill="#3F3D56"/>
<path d="M503.227 299.664C503.804 299.383 504.311 298.978 504.715 298.479C505.118 297.98 505.407 297.399 505.562 296.776C505.716 296.153 505.733 295.504 505.609 294.874C505.486 294.244 505.226 293.649 504.848 293.131L510.065 284.564L505.636 280.122L498.439 292.323C497.61 293.016 497.065 293.99 496.906 295.058C496.746 296.127 496.984 297.217 497.575 298.122C498.165 299.027 499.066 299.683 500.108 299.968C501.15 300.252 502.26 300.144 503.227 299.664Z" fill="#FFB7B7"/>
<path d="M503.247 224.336L510.134 218.874C510.134 218.874 516.647 224.208 516.486 229.32C516.326 234.432 518.276 261.666 518.276 261.666L507.528 294.036L499.525 287.628L508.9 262.358L501.512 240.794L503.247 224.336Z" fill="#3F3D56"/>
<path d="M458.723 301.189C458.191 300.829 457.746 300.357 457.416 299.807C457.087 299.256 456.883 298.64 456.817 298.001C456.752 297.363 456.827 296.718 457.038 296.112C457.249 295.505 457.59 294.953 458.037 294.493L454.077 285.277L459.087 281.503L464.496 294.596C465.219 295.399 465.622 296.44 465.629 297.52C465.636 298.601 465.247 299.646 464.536 300.459C463.824 301.271 462.839 301.795 461.768 301.929C460.696 302.064 459.613 301.8 458.723 301.189V301.189Z" fill="#FFB7B7"/>
<path d="M469.302 226.609L463.252 220.231C463.252 220.231 456.054 224.594 455.494 229.678C454.933 234.762 449.17 261.45 449.17 261.45L455.256 295.011L464.081 289.795L458.355 263.456L468.704 243.148L469.302 226.609Z" fill="#3F3D56"/>
<path d="M488.614 206.198C494.807 206.198 499.826 201.175 499.826 194.978C499.826 188.782 494.807 183.758 488.614 183.758C482.422 183.758 477.402 188.782 477.402 194.978C477.402 201.175 482.422 206.198 488.614 206.198Z" fill="#FFB7B7"/>
<path d="M485.903 185.016C484.771 184.816 483.65 185.331 482.601 185.801C481.552 186.272 480.379 186.718 479.28 186.381C478.773 186.189 478.319 185.878 477.956 185.476C477.593 185.073 477.332 184.589 477.193 184.065C476.927 183.015 476.831 181.929 476.91 180.848L478.105 181.539L477.289 180.167L488.924 178.88C492.445 178.491 496.392 178.219 499.131 180.467C500.526 181.735 501.542 183.366 502.066 185.178C504.388 192.294 507.026 202.662 495.104 204.777C493.442 204.317 496.152 198.196 496.125 196.471C496.097 194.746 495.148 192.807 493.445 192.542L492.197 194.278C492.996 193.167 490.162 189.559 489.457 188.855C488.823 188.317 488.251 187.71 487.751 187.045C487.188 186.182 487.181 185.242 485.903 185.016Z" fill="#2F2E41"/>
<path d="M537.343 401H419.805C419.631 401 419.464 400.931 419.341 400.808C419.218 400.684 419.149 400.517 419.149 400.343C419.149 400.169 419.218 400.002 419.341 399.878C419.464 399.755 419.631 399.686 419.805 399.686H537.343C537.517 399.686 537.684 399.755 537.808 399.878C537.931 400.002 538 400.169 538 400.343C538 400.517 537.931 400.684 537.808 400.808C537.684 400.931 537.517 401 537.343 401Z" fill="#CBCBCB"/>
</g>
<defs>
<clipPath id="clip0_110_28">
<rect width="538" height="401" fill="white"/>
</clipPath>
</defs>
</svg>
