<svg width="500" height="349" viewBox="0 0 500 349" fill="none" xmlns="http://www.w3.org/2000/svg">
<g clip-path="url(#clip0_121_165)">
<path d="M288.679 221.951C287.88 204.285 284.668 186.81 279.132 170.013C279.132 170.013 279.137 170.008 279.132 170.008C277.924 166.328 276.599 162.678 275.159 159.059C274.62 157.699 274.064 156.344 273.493 154.992C269.021 144.402 263.617 134.228 257.347 124.591C255.121 121.159 252.783 117.799 250.334 114.511C244.592 106.802 238.295 99.5227 231.492 92.7302C228.714 89.9538 225.868 87.2731 222.954 84.6878C222.532 84.3098 222.11 83.9362 221.684 83.5712C211.207 74.4141 199.777 66.407 187.591 59.6874C187.417 59.5831 187.248 59.4919 187.074 59.4006C184.591 58.0363 182.078 56.73 179.535 55.4815C179.274 55.3512 179.018 55.2208 178.757 55.0992C176.579 54.0347 174.379 53.0137 172.157 52.0361C171.805 51.8753 171.449 51.7189 171.092 51.5668C171.083 51.5625 171.079 51.5581 171.07 51.5581C170.444 51.2844 169.818 51.015 169.192 50.75C169.027 50.6805 168.862 50.6109 168.697 50.5414H168.692C146.167 41.0868 122.062 35.9559 97.6365 35.4169C96.0627 35.3778 94.4846 35.359 92.9021 35.3604H50.4964C47.204 35.3579 43.926 35.7948 40.7493 36.6595C40.6841 36.6769 40.6232 36.6943 40.558 36.7117C32.752 38.8916 25.873 43.562 20.9692 50.0113C16.0653 56.4606 13.4054 64.3352 13.3947 72.4353V233.635C13.3943 234.51 13.5878 235.374 13.9614 236.165C14.335 236.956 14.8794 237.654 15.5554 238.21C15.5641 238.219 15.5728 238.223 15.5772 238.227C16.6375 239.1 17.9687 239.576 19.3421 239.574H280.554C282.766 239.572 284.886 238.692 286.45 237.129C288.014 235.566 288.894 233.447 288.897 231.236C288.897 228.13 288.824 225.035 288.679 221.951Z" fill="#F2F2F2"/>
<path d="M191.673 197.582C191.694 212.067 188.376 226.362 181.975 239.359H19.3421C17.8227 239.359 16.3655 238.756 15.2912 237.682C14.2168 236.608 13.6132 235.152 13.6132 233.633V152.348C38.6013 106.38 96.1444 89.3612 142.139 114.334C157.127 122.472 169.64 134.501 178.358 149.152C187.076 163.804 191.676 180.535 191.673 197.582V197.582Z" fill="#2F2E41"/>
<path d="M288.68 182.465V231.237C288.68 233.391 287.824 235.457 286.299 236.98C284.775 238.503 282.708 239.359 280.553 239.359H18.9819C17.4737 239.359 16.0273 238.76 14.9607 237.695C13.8941 236.629 13.2946 235.183 13.2942 233.676V233.618C13.2942 192.996 139.72 158.346 175.666 144.891C195.965 137.318 218.247 136.915 238.806 143.751C259.366 150.586 276.966 164.248 288.68 182.465L288.68 182.465Z" fill="#3F3D56"/>
<path d="M268.91 95.165C270.999 82.2997 262.256 70.178 249.383 68.0902C236.51 66.0025 224.381 74.7394 222.292 87.6046C220.203 100.47 228.945 112.592 241.818 114.679C254.691 116.767 266.821 108.03 268.91 95.165Z" fill="#FF6584"/>
<path d="M122.322 96.8014C122.322 100.077 122.185 103.204 121.913 106.182C118.392 145.038 92.5325 158.907 61.1609 158.907C60.374 158.907 59.5957 158.898 58.8175 158.877C57.2524 158.846 55.7004 158.772 54.17 158.664C40.0884 157.669 27.4633 153.528 17.9465 145.147C16.3217 143.714 14.8006 142.168 13.3947 140.52C5.01268 130.704 0 116.497 0 96.8014C0 64.7926 29.5631 26.7314 47.5836 6.50598C49.2342 4.64648 51.2502 3.14643 53.506 2.0992C55.7618 1.05197 58.2091 0.479965 60.6957 0.418801H60.8696C63.4841 0.371576 66.0777 0.891292 68.4719 1.94215C70.8661 2.99301 73.0039 4.55004 74.7381 6.50598C82.9441 15.6753 90.5907 25.3297 97.6365 35.4168C110.727 54.3388 122.322 76.7584 122.322 96.8014Z" fill="#15B54A"/>
<path d="M58.9306 151.864L81.3029 120.624L58.8741 155.292L58.8175 158.877L58.3176 189.617L58.135 200.892H51.9572L52.3832 192.75L54.1701 158.664L56.5829 112.612L56.5612 112.252L56.6047 112.187L56.6221 111.817L56.8307 107.837L34.3497 73.087L56.9003 104.574L56.9525 105.496L58.7741 70.7017L40.558 36.7117L39.5276 34.7912L40.7493 36.6595L59.0132 64.5885L59.2827 54.1998L59.7783 35.3604L60.6957 0.418854H60.8696L60.6783 35.3604L60.6 49.3336L72.4687 35.3604L79.7595 26.7793L73.7426 35.3604L60.5174 54.2303L60.0131 85.3874L77.9031 55.4903L59.9392 89.9713L59.6566 107.294L85.6243 65.6747L61.5608 109.675L59.5566 113.338L58.9306 151.864Z" fill="#3F3D56"/>
<path d="M222.045 75.7026C222.045 78.4573 221.925 81.0801 221.684 83.5712C218.737 114.581 197.995 125.66 172.844 125.66C172.214 125.66 171.583 125.651 170.962 125.638C169.701 125.612 168.455 125.553 167.223 125.46C163.549 125.223 159.903 124.661 156.328 123.783C147.442 121.576 139.738 117.305 134.043 110.418C127.53 102.541 123.648 91.2443 123.648 75.7026C123.648 64.1626 128.426 51.645 135.003 39.879C142.186 27.0312 151.515 15.0828 159.11 6.28005C160.764 4.35719 162.805 2.80424 165.099 1.72245C167.394 0.640666 169.89 0.0543372 172.427 0.00169653H172.601C175.249 -0.0401962 177.875 0.500497 180.291 1.58547C182.707 2.67045 184.855 4.27315 186.582 6.28005C201.138 23.1425 222.045 51.5624 222.045 75.7026Z" fill="#15B54A"/>
<path d="M171.053 119.994L189.047 94.8679L171.01 122.753L170.962 125.638L170.757 138.217L170.623 146.715L170.414 159.433H165.445L166.027 148.306L166.797 133.607L167.223 125.46L169.162 88.4201L169.149 88.1333L169.179 88.0812L169.362 84.5792L151.281 56.6242L169.418 81.9549L169.462 82.6979L170.927 54.7081L168.697 50.5414H168.692L155.445 25.8233L171.118 49.7941L172.427 0.00169373H172.601L172.392 37.5198L187.804 19.3799L172.331 41.4606L172.157 52.036L171.923 66.5219L178.757 55.0992L186.313 42.4729L179.535 55.4815L171.862 70.2107L171.636 84.1447L187.074 59.4006L192.525 50.6674L187.591 59.6874L171.557 89.0066L171.053 119.994Z" fill="#3F3D56"/>
<path d="M323.399 127.937C323.399 152.868 308.569 161.571 290.275 161.571C289.853 161.571 289.431 161.566 289.01 161.558C288.162 161.536 287.323 161.501 286.493 161.436C282.618 161.207 278.798 160.406 275.159 159.059C264.468 154.953 257.156 145.447 257.156 127.937C257.157 126.819 257.221 125.702 257.347 124.591C257.96 118.999 260.029 113.164 262.855 107.494C264.475 104.272 266.272 101.142 268.237 98.1179C270.742 94.2335 273.433 90.5534 276.045 87.2383C277.698 85.133 279.8 83.4224 282.197 82.2311C284.595 81.0398 287.228 80.3978 289.905 80.3516C289.966 80.3516 290.027 80.3473 290.092 80.3516C292.863 80.3137 295.606 80.9154 298.106 82.1098C300.607 83.3043 302.798 85.0593 304.509 87.2383C313.486 98.6349 323.399 114.298 323.399 127.937Z" fill="#15B54A"/>
<path d="M289.071 157.756L301.183 140.841L289.04 159.615L289.01 161.558L288.666 182.443L288.636 184.307H285.293L285.623 178.003L286.493 161.436L287.797 136.501L287.784 136.305L287.806 136.27L287.932 133.915L275.759 115.093L287.966 132.147L287.997 132.647L288.984 113.803L278.563 94.3552L289.114 110.501L289.905 80.3516C289.966 80.3516 290.027 80.3473 290.092 80.3516L289.971 102.232L300.348 90.019L289.927 104.883L289.653 121.758L299.344 105.565L289.614 124.239L289.462 133.62L303.526 111.083L289.41 136.892L289.071 157.756Z" fill="#3F3D56"/>
<path d="M79.2239 173.933C77.758 176.27 75.8561 176.215 74.1414 175.14C72.4267 174.066 71.5484 172.379 73.0143 170.042C74.4801 167.705 79.4497 166.678 79.4497 166.678C79.4497 166.678 80.6897 171.596 79.2239 173.933Z" fill="#15B54A"/>
<path d="M33.5922 180.311C32.1264 182.648 30.2245 182.593 28.5097 181.518C26.795 180.444 25.9168 178.757 27.3826 176.42C28.8485 174.084 33.8181 173.056 33.8181 173.056C33.8181 173.056 35.0581 177.974 33.5922 180.311Z" fill="#15B54A"/>
<path d="M195.359 169.07C195.63 171.814 194.092 172.934 192.078 173.133C190.064 173.331 188.337 172.534 188.066 169.79C187.795 167.045 191.096 163.193 191.096 163.193C191.096 163.193 195.088 166.325 195.359 169.07Z" fill="#15B54A"/>
<path d="M142.725 135.026C141.259 137.363 139.358 137.308 137.643 136.233C135.928 135.159 135.05 133.472 136.516 131.135C137.982 128.798 142.951 127.771 142.951 127.771C142.951 127.771 144.191 132.689 142.725 135.026Z" fill="#15B54A"/>
<path d="M263.984 171.062C262.519 173.399 260.617 173.344 258.902 172.27C257.187 171.196 256.309 169.509 257.775 167.172C259.241 164.835 264.21 163.808 264.21 163.808C264.21 163.808 265.45 168.726 263.984 171.062Z" fill="#15B54A"/>
<path d="M469.908 206.053C469.908 282.601 435.132 342.988 392.305 344.655C336.456 346.829 263.464 291.176 314.702 206.053C354.185 140.46 349.446 67.4515 392.305 67.4515C435.164 67.4515 469.908 129.506 469.908 206.053Z" fill="#F2F2F2"/>
<path d="M496.225 194.053C489.295 202.66 479.831 212.884 469.54 219.601C464.645 222.799 459.558 225.206 454.472 226.266C427.782 231.836 415.153 217.924 411.066 198.367C410.971 197.911 410.879 197.459 410.801 197.007C410.627 196.095 410.481 195.188 410.362 194.288C407.923 176.374 414.853 160.615 439.673 155.436C447.355 153.832 456.254 155.04 465.032 157.573C474.292 160.245 483.413 164.39 490.834 168.262C493.02 169.394 494.932 170.989 496.439 172.934C497.946 174.88 499.011 177.13 499.56 179.528C499.573 179.584 499.586 179.641 499.595 179.697C500.151 182.189 500.138 184.775 499.554 187.261C498.971 189.746 497.833 192.068 496.225 194.053Z" fill="#15B54A"/>
<path d="M469.088 185.828L453.546 188.809L469.636 194.374L473.044 195.552L469.645 194.596L450.881 189.317L440.803 191.25L468.075 201.257L437.286 191.928L414.879 196.225L435.695 205.397L412.884 196.608L410.801 197.007L401.48 198.793V198.798L391.607 200.688L387.851 201.409L386.359 201.696L385.612 198.115L387.129 197.881L390.246 197.398L401.637 195.639L410.362 194.288L437.351 190.112L437.556 190.06L437.599 190.077L440.147 189.682L457.576 172.459L442.047 189.326L441.521 189.469L461.911 186.315L468.614 180.701L480.405 170.825L468.784 182.417L465.484 185.711L469.023 185.068L499.56 179.528C499.573 179.584 499.586 179.641 499.595 179.697L474.523 184.785L489.913 193.149L471.671 185.333L469.088 185.828Z" fill="#3F3D56"/>
<path d="M403.81 139.894C403.81 139.883 403.807 139.873 403.802 139.864C403.629 139.155 403.289 138.498 402.81 137.947C402.399 137.474 401.895 137.089 401.33 136.815C400.765 136.542 400.151 136.386 399.524 136.357C399.471 136.357 399.424 136.353 399.372 136.353C398.887 136.349 398.404 136.419 397.941 136.561C397.084 136.829 396.324 137.34 395.752 138.032C395.18 138.724 394.821 139.567 394.72 140.459L394.45 146.059L393.637 163.043L393.528 165.238L392.215 192.597C391.531 193.186 390.996 193.927 390.654 194.762C390.312 195.596 390.172 196.5 390.246 197.398C390.32 198.322 390.613 199.214 391.103 200.001C391.668 200.902 392.469 201.631 393.42 202.108C394.226 202.511 395.114 202.72 396.015 202.721C397.202 202.718 398.359 202.351 399.33 201.668C400.3 200.986 401.037 200.022 401.441 198.906C401.454 198.871 401.467 198.832 401.48 198.798V198.793C401.826 197.777 401.88 196.684 401.637 195.639C401.532 195.206 401.38 194.787 401.184 194.387C401.056 194.134 400.909 193.89 400.745 193.658L402.532 164.199L403.606 146.446L403.889 141.775L403.902 141.575C403.933 141.335 403.944 141.092 403.936 140.85C403.939 140.837 403.939 140.824 403.936 140.811C403.925 140.502 403.883 140.195 403.81 139.894Z" fill="#FFB6B6"/>
<path d="M404.215 144.104C404.215 143.508 404.151 142.914 404.023 142.331C403.989 142.145 403.941 141.958 403.889 141.775C403.566 140.624 403.013 139.55 402.263 138.618C401.512 137.687 400.58 136.918 399.524 136.357C397.764 135.419 395.738 135.103 393.776 135.462C388.203 136.475 384.877 138.334 383.89 140.989C383.194 142.861 383.551 145.368 384.438 148.019V148.023C385.219 150.256 386.191 152.417 387.342 154.484C387.555 154.871 387.768 155.253 387.981 155.627C389.407 158.117 390.969 160.528 392.659 162.848L392.711 162.922L393.637 163.043L394.807 163.196L402.532 164.199L403.019 164.264L403.045 164.052C403.894 157.437 404.285 150.772 404.215 144.104Z" fill="#FF6584"/>
<path d="M370.35 349C408.527 349 439.476 345.693 439.476 341.614C439.476 337.534 408.527 334.227 370.35 334.227C332.173 334.227 301.225 337.534 301.225 341.614C301.225 345.693 332.173 349 370.35 349Z" fill="#3F3D56"/>
<path d="M365.367 330.896L358.032 330.896L354.543 302.622L365.368 302.623L365.367 330.896Z" fill="#FFB6B6"/>
<path d="M369.117 342.448L368.43 334.232L367.852 327.28L365.365 327.132L357.509 326.663L356.257 326.589V331.555L352.005 334.488L349.762 336.039L345.232 339.163C344.688 339.539 344.278 340.079 344.062 340.704C343.847 341.33 343.837 342.007 344.034 342.639C344.231 343.27 344.625 343.822 345.158 344.213C345.691 344.605 346.335 344.816 346.997 344.816H360.8L362.744 340.806L363.178 339.902L363.383 340.988V340.993L364.109 344.816H369.313L369.117 342.448Z" fill="#2F2E41"/>
<path d="M399.081 325.091L392.222 327.689L378.932 302.487L389.054 298.653L399.081 325.091Z" fill="#FFB6B6"/>
<path d="M407.058 335.353L400.119 320.828L397.745 321.571L390.233 323.917L389.033 324.291L390.794 328.931L383.186 339.95C382.92 340.334 382.745 340.772 382.673 341.233C382.601 341.694 382.634 342.165 382.769 342.612C382.905 343.058 383.139 343.468 383.455 343.812C383.771 344.155 384.16 344.422 384.594 344.594C385.241 344.854 385.958 344.884 386.625 344.677H386.638C386.706 344.66 386.772 344.638 386.838 344.612L399.745 339.724L400.167 334.949L400.228 334.288L400.65 334.975L402.841 338.551L407.706 336.709L407.058 335.353Z" fill="#2F2E41"/>
<path d="M413.604 278.995C413.876 281.74 412.338 282.859 410.324 283.058C408.31 283.257 406.582 282.46 406.311 279.715C406.04 276.97 409.341 273.119 409.341 273.119C409.341 273.119 413.333 276.25 413.604 278.995Z" fill="#15B54A"/>
<path d="M398.784 244.615C397.318 246.952 395.416 246.897 393.701 245.823C391.986 244.748 391.108 243.062 392.574 240.725C394.04 238.388 399.009 237.36 399.009 237.36C399.009 237.36 400.249 242.278 398.784 244.615Z" fill="#15B54A"/>
<path d="M380.238 256.369C380.238 256.369 412.347 306.892 408.793 309.158C405.239 311.424 376.438 320.304 373.865 318.528C371.291 316.752 369.208 258.635 369.208 258.635L380.238 256.369Z" fill="#2F2E41"/>
<path d="M360.661 178.359C365.379 178.542 384.772 181.35 384.343 182.085C383.92 182.732 383.449 183.346 382.934 183.922C382.934 183.922 383.914 188.393 383.485 188.821C383.057 189.25 391.88 199.355 386.733 221.034C381.586 242.713 382.137 257.716 382.137 257.716C382.137 257.716 384.221 321.284 378.277 322.57C372.333 323.856 348.925 322.998 347.822 320.488C346.719 317.977 351.192 240.018 351.192 240.018C351.192 240.018 351.683 200.824 352.847 196.048C354.011 191.271 357.744 178.294 360.661 178.359Z" fill="#2F2E41"/>
<path d="M383.455 124.672C391.611 124.672 398.223 118.065 398.223 109.913C398.223 101.762 391.611 95.1546 383.455 95.1546C375.299 95.1546 368.687 101.762 368.687 109.913C368.687 118.065 375.299 124.672 383.455 124.672Z" fill="#FFB6B6"/>
<path d="M398.253 129.908C400.337 131.991 409.344 140.564 399.54 155.752C389.736 170.939 383.485 181.962 383.485 181.962L359.097 179.084L362.835 164.264C362.835 164.264 360.997 152.567 367.247 146.749C373.497 140.932 380.36 131.378 380.36 131.378L383.9 130.732C383.9 130.732 396.17 127.826 398.253 129.908Z" fill="#FF6584"/>
<path d="M390.9 151.832C390.9 151.832 356.462 178.349 354.256 169.041C352.823 162.991 354.496 140.253 355.444 130.565L362.406 130.643C362.406 130.643 360.935 152.016 363.877 154.466C363.877 154.466 374.533 144.183 376.742 144.333C378.951 144.484 390.9 151.832 390.9 151.832Z" fill="#FFB6B6"/>
<path d="M398.253 135.298C398.253 135.298 393.577 156.993 379.79 160.545L363.704 154.027C363.704 154.027 384.16 132.236 391.206 131.991C398.253 131.746 398.253 135.298 398.253 135.298Z" fill="#FF6584"/>
<path d="M359.356 134.041C362.478 134.041 365.008 131.512 365.008 128.393C365.008 125.273 362.478 122.744 359.356 122.744C356.235 122.744 353.704 125.273 353.704 128.393C353.704 131.512 356.235 134.041 359.356 134.041Z" fill="#FFB6B6"/>
<path d="M403.839 113.336C403.797 109.68 403.75 105.984 402.909 102.441C402.068 98.898 400.343 95.4678 397.55 93.3667C394.756 91.2654 390.788 90.7588 387.915 92.7325C385.774 89.9759 382.072 88.9224 378.797 89.6675C375.522 90.4126 372.692 92.758 370.735 95.6675C368.778 98.577 367.622 102.022 366.839 105.508C366.561 106.746 366.444 108.326 367.441 109.02C368.223 109.564 369.254 109.229 370.127 108.878C372.528 107.915 374.929 106.951 377.33 105.987C379.758 109.305 383.255 112.331 382.773 116.513C382.291 120.699 379.493 125.098 378.014 129.007C380.078 128.262 382.142 127.518 384.206 126.773C384.867 125.671 386.505 123.936 386.388 122.655C386.843 123.607 387.15 124.623 387.3 125.667C387.3 125.676 387.3 125.684 387.301 125.693L398.788 121.549C400.155 121.056 401.59 120.515 402.534 119.347C403.821 117.754 403.864 115.442 403.839 113.336Z" fill="#2F2E41"/>
</g>
<defs>
<clipPath id="clip0_121_165">
<rect width="500" height="349" fill="white"/>
</clipPath>
</defs>
</svg>
